<svg xmlns="http://www.w3.org/2000/svg" viewBox="0 0 300 238"><style>.cls-1,.cls-5{fill:rgba(255,255,255,0.5);}.cls-2{fill:#e3d8bf;stroke:#c4bba6;stroke-linecap:square;stroke-width:0.3px;}.cls-3{fill:#f3e1cd;}.cls-4{fill:url(#New_Pattern);}.cls-5{stroke:#b5b9c5;stroke-miterlimit:10;stroke-width:3px;}.cls-6{fill:#e7b59c;}</style><defs><pattern id="New_Pattern" data-name="New Pattern" y="-62" width="10" height="10" patternUnits="userSpaceOnUse" viewBox="0 0 10 10"><rect class="cls-1" width="10" height="10"/><polyline class="cls-2" points="6.72 22.63 22.29 7.41 25.28 10.43 6.71 28.64"/><polyline class="cls-2" points="-3.28 22.63 12.29 7.41 15.28 10.43 -3.29 28.64"/><polyline class="cls-2" points="-13.28 22.63 2.29 7.41 5.28 10.43 -13.29 28.64"/><polyline class="cls-2" points="8.29 7.39 23.14 22.27 20.14 25.28 2.27 7.38"/><polyline class="cls-2" points="-1.71 7.39 13.14 22.27 10.14 25.28 -7.73 7.38"/><polyline class="cls-2" points="-11.71 7.39 3.14 22.27 0.14 25.28 -17.73 7.38"/><polyline class="cls-2" points="6.72 12.63 22.29 -2.59 25.28 0.43 6.71 18.64"/><polyline class="cls-2" points="-3.28 12.63 12.29 -2.59 15.28 0.43 -3.29 18.64"/><polyline class="cls-2" points="-13.28 12.63 2.29 -2.59 5.28 0.43 -13.29 18.64"/><polyline class="cls-2" points="8.29 -2.61 23.14 12.27 20.14 15.28 2.27 -2.62"/><polyline class="cls-2" points="-1.71 -2.61 13.14 12.27 10.14 15.28 -7.73 -2.62"/><polyline class="cls-2" points="-11.71 -2.61 3.14 12.27 0.14 15.28 -17.73 -2.62"/><polyline class="cls-2" points="6.72 2.63 22.29 -12.59 25.28 -9.57 6.71 8.64"/><polyline class="cls-2" points="22.33 23.44 7.42 7.93 10.42 4.92 28.33 23.42"/><polyline class="cls-2" points="-3.28 2.63 12.29 -12.59 15.28 -9.57 -3.29 8.64"/><polyline class="cls-2" points="12.33 23.44 -2.58 7.93 0.42 4.92 18.33 23.42"/><polyline class="cls-2" points="-13.28 2.63 2.29 -12.59 5.28 -9.57 -13.29 8.64"/><polyline class="cls-2" points="2.33 23.44 -12.58 7.93 -9.58 4.92 8.33 23.42"/><polyline class="cls-2" points="23.17 8.18 8.17 23.24 5.26 20.14 23.18 2.16"/><polyline class="cls-2" points="8.29 -12.61 23.14 2.27 20.14 5.28 2.27 -12.62"/><polyline class="cls-2" points="13.17 8.18 -1.83 23.24 -4.74 20.14 13.18 2.16"/><polyline class="cls-2" points="-1.71 -12.61 13.14 2.27 10.14 5.28 -7.73 -12.62"/><polyline class="cls-2" points="3.17 8.18 -11.83 23.24 -14.74 20.14 3.18 2.16"/><polyline class="cls-2" points="-11.71 -12.61 3.14 2.27 0.14 5.28 -17.73 -12.62"/><polyline class="cls-2" points="22.33 13.44 7.42 -2.07 10.42 -5.08 28.33 13.42"/><polyline class="cls-2" points="12.33 13.44 -2.58 -2.07 0.42 -5.08 18.33 13.42"/><polyline class="cls-2" points="2.33 13.44 -12.58 -2.07 -9.58 -5.08 8.33 13.42"/><polyline class="cls-2" points="23.17 -1.82 8.17 13.24 5.26 10.14 23.18 -7.84"/><polyline class="cls-2" points="13.17 -1.82 -1.83 13.24 -4.74 10.14 13.18 -7.84"/><polyline class="cls-2" points="3.17 -1.82 -11.83 13.24 -14.74 10.14 3.18 -7.84"/><polyline class="cls-2" points="22.33 3.44 7.42 -12.07 10.42 -15.08 28.33 3.42"/><polyline class="cls-2" points="12.33 3.44 -2.58 -12.07 0.42 -15.08 18.33 3.42"/><polyline class="cls-2" points="2.33 3.44 -12.58 -12.07 -9.58 -15.08 8.33 3.42"/><polyline class="cls-2" points="23.17 -11.82 8.17 3.24 5.26 0.14 23.18 -17.84"/><polyline class="cls-2" points="13.17 -11.82 -1.83 3.24 -4.74 0.14 13.18 -17.84"/><polyline class="cls-2" points="3.17 -11.82 -11.83 3.24 -14.74 0.14 3.18 -17.84"/></pattern></defs><path class="cls-3" d="M137,13h26a0,0,0,0,1,0,0V42.58A8.42,8.42,0,0,1,154.58,51h-9.16A8.42,8.42,0,0,1,137,42.58V13A0,0,0,0,1,137,13Z"/><rect class="cls-4" y="199" width="300" height="39"/><path class="cls-5" d="M181.85,127.79c2.21,34.31,17.65,136.38,17.65,136.38C199.5,271.53,186,289,150,289s-49.5-17.47-49.5-24.83c0,0,17.65-102.28,17.65-136.38,0-7.07,15.35-16.87,15.35-21.9v-19h33v19C166.5,110.92,181.39,120.74,181.85,127.79Z" transform="translate(0 -62)"/><rect class="cls-5" x="126" y="18" width="48" height="6.84" rx="2.89"/><rect class="cls-6" x="126" width="48" height="17"/></svg>
