<svg xmlns="http://www.w3.org/2000/svg" viewBox="0 0 16 16"><defs><style>.cls-1{fill:#6495ed;}.cls-2{fill:#a2bff4;}.cls-3{fill:#51607a;}.cls-4{fill:#c7d9f8;}.cls-5,.cls-6{fill:none;stroke:#fff;stroke-miterlimit:10;}.cls-5{stroke-width:0.75px;}.cls-6{stroke-width:0.25px;}</style></defs><g id="Layer_1" data-name="Layer 1"><path class="cls-1" d="M16,8a8,8,0,1,1-1.19-4.2,7.9,7.9,0,0,1,1.08,2.87A8.33,8.33,0,0,1,16,8Z"/></g><g id="Layer_2" data-name="Layer 2"><path class="cls-2" d="M13.6,8.19A2.25,2.25,0,0,0,13,5.09,2.31,2.31,0,0,0,10.21,5a2.51,2.51,0,0,0-.62-.64A2.44,2.44,0,0,0,8,3.9a2.41,2.41,0,0,0-.94-1.37,2.23,2.23,0,0,0-3.14.32,2.15,2.15,0,0,0,.2,2.67,2,2,0,0,0-.61.53,2.25,2.25,0,0,0,.65,3.1,2.58,2.58,0,0,0,.8.39,2.3,2.3,0,0,0,.9,2.6,2.3,2.3,0,0,0,2.74.07,2.51,2.51,0,0,0,.62.64,2.25,2.25,0,0,0,3.15-.32,2,2,0,0,0,.3-.65,2.05,2.05,0,0,0,.53-.49A2.16,2.16,0,0,0,13,8.72,1.9,1.9,0,0,0,13.6,8.19Z"/><path class="cls-3" d="M10.67,9a1.46,1.46,0,0,0-1-1.78A1.49,1.49,0,0,0,8,7.69a1.6,1.6,0,0,0-.5-.27,1.63,1.63,0,0,0-1.07,0,1.61,1.61,0,0,0-.85-.65,1.44,1.44,0,0,0-1.86.83,1.41,1.41,0,0,0,.66,1.61,1.43,1.43,0,0,0-.26.45,1.47,1.47,0,0,0,1,1.78,1.58,1.58,0,0,0,.56.08A1.51,1.51,0,0,0,6.74,13a1.49,1.49,0,0,0,1.7-.51,1.42,1.42,0,0,0,.5.27,1.43,1.43,0,0,0,1.86-.83,1.21,1.21,0,0,0,0-.46,1.27,1.27,0,0,0,.23-.41,1.42,1.42,0,0,0-.67-1.61A1,1,0,0,0,10.67,9Z"/><path class="cls-4" d="M15.89,6.67a2.22,2.22,0,0,1-.44.58,2.08,2.08,0,0,1-1.29.6,2.5,2.5,0,0,1-.7,1.34,2.37,2.37,0,0,1-.64.44,2.35,2.35,0,0,1-.61,2.46,1.65,1.65,0,0,1-2.93-.61,1.59,1.59,0,0,1-2.48-.86,1.47,1.47,0,0,1-.47-.39,2.22,2.22,0,0,1,.36-2.88,2.16,2.16,0,0,1,.64-.44,2.33,2.33,0,0,1,.6-2.46,1.82,1.82,0,0,1,2.28-.34,2.51,2.51,0,0,1,.47-.65,1.74,1.74,0,0,1,2.63,0,1.73,1.73,0,0,1,.31.64,1.87,1.87,0,0,1,1.19-.27A7.9,7.9,0,0,1,15.89,6.67Z"/></g><g id="Layer_3" data-name="Layer 3"><polygon class="cls-5" points="13.35 13.5 4.15 13.5 3 8 14.5 8 13.35 13.5"/><polyline class="cls-5" points="3.5 10.5 2.5 5.5 0.5 5.5"/></g><g id="Layer_4" data-name="Layer 4"><line class="cls-6" x1="4.5" y1="8" x2="5.5" y2="13.5"/><line class="cls-6" x1="5.5" y1="8" x2="6.5" y2="13.5"/><line class="cls-6" x1="6.5" y1="8" x2="7.5" y2="13.5"/><line class="cls-6" x1="7.5" y1="8" x2="8.5" y2="13.5"/><line class="cls-6" x1="8.5" y1="8" x2="9.5" y2="13.5"/><line class="cls-6" x1="9.5" y1="8" x2="10.5" y2="13.5"/><line class="cls-6" x1="10.5" y1="8" x2="11.5" y2="13.5"/><line class="cls-6" x1="11.5" y1="8" x2="12.5" y2="13.5"/><line class="cls-6" x1="12.5" y1="8" x2="13.5" y2="13.5"/><line class="cls-6" x1="3" y1="10" x2="14" y2="10"/><line class="cls-6" x1="4" y1="12" x2="14" y2="12"/></g></svg>